PathFileType	4	(X/Y/Z)	Patient4_TMGait_0pt7_02_left_40.trc.trc
DataRate	CameraRate	NumFrames	NumMarkers	Units	OrigDataRate	OrigDataStartFrame	OrigNumFrames
86.956521739130	86.956521739130	4	33	mm	86.956521739130	1	       141
Frame#	Time	Sacral			L.Shoulder			Chest			R.Shoulder			Neck			R.ASIS			L.ASIS			R.Thigh.Superior			R.Thigh.Lateral			R.Thigh.Inferior			R.Patella			L.Thigh.Superior			L.Thigh.Lateral			L.Thigh.Inferior			L.Patella			L.Shank.Superior			L.Shank.Lateral			L.Shank.Inferior			R.Shank.Superior			R.Shank.Lateral			R.Shank.Inferior			R.Heel			R.Midfoot.Superior			R.Midfoot.Lateral			R.Toe			L.Heel			L.Midfoot.Lateral			L.Midfoot.Superior			L.Toe			L.Elbow			L.Wrist			R.Elbow			R.Wrist			
		X1	Y1	Z1	X2	Y2	Z2	X3	Y3	Z3	X4	Y4	Z4	X5	Y5	Z5	X6	Y6	Z6	X7	Y7	Z7	X8	Y8	Z8	X9	Y9	Z9	X10	Y10	Z10	X11	Y11	Z11	X12	Y12	Z12	X13	Y13	Z13	X14	Y14	Z14	X15	Y15	Z15	X16	Y16	Z16	X17	Y17	Z17	X18	Y18	Z18	X19	Y19	Z19	X20	Y20	Z20	X21	Y21	Z21	X22	Y22	Z22	X23	Y23	Z23	X24	Y24	Z24	X25	Y25	Z25	X26	Y26	Z26	X27	Y27	Z27	X28	Y28	Z28	X29	Y29	Z29	X30	Y30	Z30	X31	Y31	Z31	X32	Y32	Z32	X33	Y33	Z33	

1	45.820000000000	732.401258665670	1014.427044546433	553.672721694042	928.765704689477	1433.198913165610	367.088613096814	1043.413151953809	1350.113558329785	514.846185936993	987.848761459364	1429.805439975063	696.881675685189	954.390052456269	1489.241515201912	520.176253724806	962.556892967205	939.669036954032	656.315274350596	933.044155402599	960.953667136635	383.937257391464	1002.117310479440	742.961068131895	631.435240990022	922.300828011860	632.153547855738	685.019013239029	1005.363744197761	583.689399007997	607.476632304900	1007.804520052904	492.701798059167	613.581285557206	1025.312371104370	801.629342029929	399.862042878095	991.300498659647	677.359048865683	310.783414282420	1107.787057052658	623.411730890597	359.770481691108	1128.611233991844	532.373259290599	344.799985611701	1061.683524450373	461.099082075955	346.052971675234	915.255084879166	420.572251665519	311.661585475727	905.751873324757	293.363706225239	369.395666424304	973.949352232363	404.795661256555	614.901369273885	894.439886150207	301.210638489291	666.794518984195	939.828673087400	207.907886345258	602.777913258874	803.306914573140	43.549975485277	558.469842482888	976.014639751574	99.021827776239	602.205221618222	884.984801847339	36.253695029782	633.888125274612	1093.275942069412	45.423394947712	628.870339972705	717.826148069775	228.054267881836	424.095224070859	769.387750124732	183.756580038711	339.073075253079	875.862449809540	193.724192506058	351.422989973254	952.605249438504	82.579559748714	316.518706570958	814.661973573006	1097.647186197835	261.784378060573	853.064763295778	837.592753703981	252.576936552406	1059.932445601625	1089.554827429064	818.542407427681	1247.580438990294	910.834032122818	776.190024256854	
2	45.831500000000	730.930012532627	1014.781694234948	554.437098466959	927.146694202410	1433.372519540553	367.924924995988	1042.200321198770	1350.059271930272	515.130076435239	987.544867101238	1429.895211202389	697.402245042132	953.485553806384	1489.321352323351	520.904845676537	960.987892994033	940.043772830185	657.112544327995	931.538711954707	960.910180317348	384.708840074460	998.256173897530	742.333454894683	631.503164025023	917.402927498493	632.155924194819	685.481559377218	999.446068021369	582.903528738982	607.639653432100	1000.714194421238	492.111999234490	613.526704218787	1024.769369287785	804.265680228986	400.669550090154	992.862993200948	679.828500852508	310.786488623074	1109.962399987335	627.759586423963	359.941561001744	1132.755658604955	537.819922641903	344.765523399711	1068.724567013417	464.867382129843	345.372643940346	924.606215536166	418.024667970910	310.938408698870	921.482381452071	290.172913959106	367.494687975113	966.700756010591	404.422481436359	614.997960004110	886.847915137397	301.109277590755	666.947295672031	931.764316034774	207.695583803959	602.776355795392	794.782030263555	43.553629103301	558.338294535690	967.548549003169	99.005967193405	602.206505143479	876.487220949804	36.282270049099	633.942512909077	1084.760885257760	45.337326287383	628.867896500044	737.636308240061	216.180556680863	422.179624211422	790.572070715826	174.862888185986	336.648300652576	896.238208324966	189.495207780500	348.759921790029	977.590466199731	82.390223495234	312.762562326982	806.012912472625	1100.511996636086	264.032873677713	830.484638026610	840.154904168258	256.704712546226	1068.931135323187	1093.013033787475	818.226340775459	1265.812601743615	928.885041653852	770.675329559641	
3	45.843000000000	729.478052589171	1015.133394480893	555.184170644817	925.566557167613	1433.530391537169	368.734620664779	1041.016191013395	1349.989709625763	515.400729014390	987.245820541934	1429.973321636321	697.901547781345	952.605828929837	1489.382639489433	521.602043526298	959.446399623907	940.388532950682	657.873170120601	930.041583966118	960.850088212666	385.449572253269	994.448170724469	741.705217937493	631.523203038672	912.585327414251	632.157599783236	685.931166961360	993.608462749430	582.120827239779	607.782525585407	993.713582092973	491.526441766323	613.459242067083	1024.161694146877	806.778033185175	401.473749514065	994.302604686226	682.177996627356	310.831097432402	1111.982995739526	631.945488151679	360.163521874738	1136.708641718920	543.104547721890	344.782507474175	1075.564575443575	468.515483405753	344.738249754185	933.812940597632	415.399099677298	310.197945551094	937.023827690096	286.970017286633	365.590796389150	959.544915555281	404.051692726217	615.090307096188	879.354107122399	301.008882661154	667.097232684757	923.802047101217	207.481801945031	602.772441519195	786.368565495271	43.552993303142	558.228211290649	959.178660059296	98.981097048551	602.198484077211	868.090979020297	36.309900070210	634.003812110955	1076.347433364619	45.249658813500	628.863627137963	757.297005543391	204.364171288167	420.185284045552	811.599038281680	166.031974417129	334.169535332156	916.426857958448	185.292290174869	346.094725254589	1002.341920752087	82.236153035946	309.037884662689	797.521920994260	1103.352543784555	266.231929254689	808.386653994358	842.806179514839	260.805856446798	1077.695720277179	1096.430791189918	817.876410318129	1283.528917768225	946.878586344928	765.173932342064	
4	45.854500000000	728.063110284231	1015.479532758201	555.891618014678	924.061485099257	1433.657498146813	369.484021638690	1039.884726252768	1349.886470430038	515.636571195250	986.958799004002	1430.025796224903	698.348287063939	951.777485362901	1489.407840119104	522.234578924850	957.949686373610	940.677756447319	658.558533886930	928.555750991247	960.752602895274	386.121349365468	990.716443763842	741.070510088413	631.463880471961	907.873177806131	632.160617755175	686.354307145768	987.870935245263	581.338304137879	607.893658339407	986.822304438790	490.946873467607	613.373722777767	1023.409498423790	809.024511949883	402.265423964793	995.465660033666	684.259775581996	310.954374966352	1113.655304496397	635.764017633484	360.487201002492	1140.238623437832	548.042569401098	344.919839275323	1081.993243392997	471.911716660043	344.215385873095	942.797064718601	412.570282106890	309.412446248894	952.294135936139	283.725130142194	363.689008522061	952.499558974615	403.686465258790	615.176479223128	871.975250596845	300.915497096935	667.242301769791	915.958291751088	207.268377687483	602.767017848180	778.084974442944	43.549880713144	558.157282519874	950.911561899266	98.938701143268	602.173406684994	859.807716167549	36.337080691324	634.078887971707	1068.047730634883	45.156588360037	628.856569262304	776.842851286742	192.588653000055	418.009899774089	832.523843609447	157.283492057726	331.582822009399	936.408463260524	181.140590335536	343.441191922336	1026.822742118513	82.219711730263	305.441942576243	789.288477042027	1106.178296491210	268.343945468080	787.140782641202	845.662685839573	264.885090525973	1086.035041069718	1099.778403363745	817.430151780587	1300.233451878364	964.897670392671	759.651832324095	
